<svg width="249" height="50" viewBox="0 0 249 50" fill="none" xmlns="http://www.w3.org/2000/svg">
<rect width="140" height="50" fill="#9D769E"/>
<path d="M8.85511 37V13.7273H14.4801V23.0682H23.6506V13.7273H29.2642V37H23.6506V27.6477H14.4801V37H8.85511ZM44.054 29.4659V19.5455H49.5994V37H44.304V33.75H44.1222C43.7358 34.8182 43.0767 35.6667 42.1449 36.2955C41.2206 36.9167 40.1032 37.2273 38.7926 37.2273C37.6032 37.2273 36.5578 36.9545 35.6562 36.4091C34.7547 35.8636 34.054 35.1023 33.554 34.125C33.054 33.1402 32.8002 31.9886 32.7926 30.6705V19.5455H38.3494V29.5795C38.357 30.5265 38.607 31.2727 39.0994 31.8182C39.5919 32.3636 40.2623 32.6364 41.1108 32.6364C41.6638 32.6364 42.16 32.5152 42.5994 32.2727C43.0464 32.0227 43.3987 31.6629 43.6562 31.1932C43.9214 30.7159 44.054 30.1402 44.054 29.4659ZM53.1364 37V19.5455H58.4205V22.75H58.6136C58.9773 21.6894 59.5909 20.8523 60.4545 20.2386C61.3182 19.625 62.3485 19.3182 63.5455 19.3182C64.7576 19.3182 65.7955 19.6288 66.6591 20.25C67.5227 20.8712 68.072 21.7045 68.3068 22.75H68.4886C68.8144 21.7121 69.4508 20.8826 70.3977 20.2614C71.3447 19.6326 72.4621 19.3182 73.75 19.3182C75.4015 19.3182 76.7424 19.8485 77.7727 20.9091C78.803 21.9621 79.3182 23.4091 79.3182 25.25V37H73.7614V26.5227C73.7614 25.6515 73.5379 24.9886 73.0909 24.5341C72.6439 24.072 72.0644 23.8409 71.3523 23.8409C70.5871 23.8409 69.9848 24.0909 69.5455 24.5909C69.1136 25.0833 68.8977 25.7462 68.8977 26.5795V37H63.5568V26.4659C63.5568 25.6553 63.3371 25.0152 62.8977 24.5455C62.4583 24.0758 61.8788 23.8409 61.1591 23.8409C60.6742 23.8409 60.2462 23.9583 59.875 24.1932C59.5038 24.4205 59.2121 24.7462 59 25.1705C58.7955 25.5947 58.6932 26.0947 58.6932 26.6705V37H53.1364ZM82.7614 37V13.7273H88.3182V22.5341H88.4318C88.6591 22.0038 88.9811 21.4924 89.3977 21C89.822 20.5076 90.3598 20.1061 91.0114 19.7955C91.6705 19.4773 92.4583 19.3182 93.375 19.3182C94.5871 19.3182 95.7197 19.6364 96.7727 20.2727C97.8333 20.9091 98.6894 21.8902 99.3409 23.2159C99.9924 24.5417 100.318 26.2311 100.318 28.2841C100.318 30.2614 100.004 31.9167 99.375 33.25C98.7538 34.5833 97.9129 35.5833 96.8523 36.25C95.7992 36.9167 94.6288 37.25 93.3409 37.25C92.4621 37.25 91.7008 37.1061 91.0568 36.8182C90.4129 36.5303 89.8712 36.1515 89.4318 35.6818C89 35.2121 88.6667 34.7083 88.4318 34.1705H88.2614V37H82.7614ZM88.2045 28.2727C88.2045 29.2121 88.3295 30.0303 88.5795 30.7273C88.8371 31.4242 89.2045 31.9659 89.6818 32.3523C90.1667 32.7311 90.7462 32.9205 91.4205 32.9205C92.1023 32.9205 92.6818 32.7311 93.1591 32.3523C93.6364 31.9659 93.9962 31.4242 94.2386 30.7273C94.4886 30.0303 94.6136 29.2121 94.6136 28.2727C94.6136 27.3333 94.4886 26.5189 94.2386 25.8295C93.9962 25.1402 93.6364 24.6061 93.1591 24.2273C92.6894 23.8485 92.1098 23.6591 91.4205 23.6591C90.7386 23.6591 90.1591 23.8447 89.6818 24.2159C89.2045 24.5871 88.8371 25.1174 88.5795 25.8068C88.3295 26.4962 88.2045 27.3182 88.2045 28.2727ZM111.389 37.3295C109.563 37.3295 107.988 36.9697 106.662 36.25C105.344 35.5227 104.329 34.4886 103.616 33.1477C102.912 31.7992 102.56 30.197 102.56 28.3409C102.56 26.5379 102.916 24.9621 103.628 23.6136C104.34 22.2576 105.344 21.2045 106.639 20.4545C107.935 19.697 109.461 19.3182 111.219 19.3182C112.461 19.3182 113.598 19.5114 114.628 19.8977C115.658 20.2841 116.548 20.8561 117.298 21.6136C118.048 22.3712 118.632 23.3068 119.048 24.4205C119.465 25.5265 119.673 26.7955 119.673 28.2273V29.6136H104.503V26.3864H114.503C114.495 25.7955 114.355 25.2689 114.082 24.8068C113.81 24.3447 113.435 23.9848 112.957 23.7273C112.488 23.4621 111.946 23.3295 111.332 23.3295C110.711 23.3295 110.154 23.4697 109.662 23.75C109.17 24.0227 108.779 24.3977 108.491 24.875C108.204 25.3447 108.052 25.8788 108.037 26.4773V29.7614C108.037 30.4735 108.177 31.0985 108.457 31.6364C108.738 32.1667 109.135 32.5795 109.651 32.875C110.166 33.1705 110.779 33.3182 111.491 33.3182C111.984 33.3182 112.431 33.25 112.832 33.1136C113.234 32.9773 113.579 32.7765 113.866 32.5114C114.154 32.2462 114.37 31.9205 114.514 31.5341L119.616 31.6818C119.404 32.8258 118.938 33.822 118.219 34.6705C117.507 35.5114 116.571 36.1667 115.412 36.6364C114.253 37.0985 112.912 37.3295 111.389 37.3295ZM122.511 37V19.5455H127.909V22.7273H128.091C128.409 21.5758 128.928 20.7197 129.648 20.1591C130.367 19.5909 131.205 19.3068 132.159 19.3068C132.417 19.3068 132.682 19.3258 132.955 19.3636C133.227 19.3939 133.481 19.4432 133.716 19.5114V24.3409C133.451 24.25 133.102 24.178 132.67 24.125C132.246 24.072 131.867 24.0455 131.534 24.0455C130.875 24.0455 130.28 24.1932 129.75 24.4886C129.227 24.7765 128.814 25.1818 128.511 25.7045C128.216 26.2197 128.068 26.8258 128.068 27.5227V37H122.511Z" fill="white"/>
<path d="M149.73 13.7273H156.696L162.605 28.1364H162.878L168.787 13.7273H175.753V37H170.276V22.7045H170.082L164.491 36.8523H160.991L155.401 22.625H155.207V37H149.73V13.7273ZM187.42 37.3295C185.595 37.3295 184.019 36.9697 182.693 36.25C181.375 35.5227 180.36 34.4886 179.648 33.1477C178.943 31.7992 178.591 30.197 178.591 28.3409C178.591 26.5379 178.947 24.9621 179.659 23.6136C180.371 22.2576 181.375 21.2045 182.67 20.4545C183.966 19.697 185.492 19.3182 187.25 19.3182C188.492 19.3182 189.629 19.5114 190.659 19.8977C191.689 20.2841 192.58 20.8561 193.33 21.6136C194.08 22.3712 194.663 23.3068 195.08 24.4205C195.496 25.5265 195.705 26.7955 195.705 28.2273V29.6136H180.534V26.3864H190.534C190.527 25.7955 190.386 25.2689 190.114 24.8068C189.841 24.3447 189.466 23.9848 188.989 23.7273C188.519 23.4621 187.977 23.3295 187.364 23.3295C186.742 23.3295 186.186 23.4697 185.693 23.75C185.201 24.0227 184.811 24.3977 184.523 24.875C184.235 25.3447 184.083 25.8788 184.068 26.4773V29.7614C184.068 30.4735 184.208 31.0985 184.489 31.6364C184.769 32.1667 185.167 32.5795 185.682 32.875C186.197 33.1705 186.811 33.3182 187.523 33.3182C188.015 33.3182 188.462 33.25 188.864 33.1136C189.265 32.9773 189.61 32.7765 189.898 32.5114C190.186 32.2462 190.402 31.9205 190.545 31.5341L195.648 31.6818C195.436 32.8258 194.97 33.822 194.25 34.6705C193.538 35.5114 192.602 36.1667 191.443 36.6364C190.284 37.0985 188.943 37.3295 187.42 37.3295ZM198.543 37V19.5455H203.94V22.7273H204.122C204.44 21.5758 204.959 20.7197 205.679 20.1591C206.399 19.5909 207.236 19.3068 208.19 19.3068C208.448 19.3068 208.713 19.3258 208.986 19.3636C209.259 19.3939 209.512 19.4432 209.747 19.5114V24.3409C209.482 24.25 209.134 24.178 208.702 24.125C208.277 24.072 207.899 24.0455 207.565 24.0455C206.906 24.0455 206.312 24.1932 205.781 24.4886C205.259 24.7765 204.846 25.1818 204.543 25.7045C204.247 26.2197 204.099 26.8258 204.099 27.5227V37H198.543ZM219.253 37.3295C217.412 37.3295 215.832 36.9508 214.514 36.1932C213.204 35.4356 212.196 34.3826 211.491 33.0341C210.787 31.678 210.435 30.1098 210.435 28.3295C210.435 26.5417 210.787 24.9735 211.491 23.625C212.204 22.2689 213.215 21.2121 214.526 20.4545C215.844 19.697 217.416 19.3182 219.241 19.3182C220.855 19.3182 222.26 19.6098 223.457 20.1932C224.662 20.7765 225.601 21.6023 226.276 22.6705C226.957 23.7311 227.317 24.9773 227.355 26.4091H222.162C222.056 25.5152 221.753 24.8144 221.253 24.3068C220.76 23.7992 220.116 23.5455 219.321 23.5455C218.677 23.5455 218.113 23.7273 217.628 24.0909C217.143 24.447 216.764 24.9773 216.491 25.6818C216.226 26.3788 216.094 27.2424 216.094 28.2727C216.094 29.303 216.226 30.1742 216.491 30.8864C216.764 31.5909 217.143 32.125 217.628 32.4886C218.113 32.8447 218.677 33.0227 219.321 33.0227C219.836 33.0227 220.291 32.9129 220.685 32.6932C221.086 32.4735 221.416 32.1515 221.673 31.7273C221.931 31.2955 222.094 30.7727 222.162 30.1591H227.355C227.302 31.5985 226.942 32.8561 226.276 33.9318C225.616 35.0076 224.688 35.8447 223.491 36.4432C222.302 37.0341 220.889 37.3295 219.253 37.3295ZM235.756 27.0455V37H230.199V13.7273H235.574V22.75H235.767C236.161 21.6742 236.805 20.8333 237.699 20.2273C238.6 19.6212 239.703 19.3182 241.006 19.3182C242.233 19.3182 243.301 19.5909 244.21 20.1364C245.119 20.6742 245.824 21.4356 246.324 22.4205C246.831 23.4053 247.081 24.5568 247.074 25.875V37H241.517V26.9659C241.525 25.9962 241.282 25.2386 240.79 24.6932C240.297 24.1477 239.604 23.875 238.71 23.875C238.127 23.875 237.612 24.0038 237.165 24.2614C236.725 24.5114 236.381 24.8712 236.131 25.3409C235.888 25.8106 235.763 26.3788 235.756 27.0455Z" fill="#9D769E"/>
</svg>
